<?xml version="1.0" encoding="UTF-8" standalone="no"?>
<!-- Generator: Adobe Illustrator 16.0.0, SVG Export Plug-In . SVG Version: 6.00 Build 0)  -->

<svg
   xmlns:dc="http://purl.org/dc/elements/1.1/"
   xmlns:cc="http://creativecommons.org/ns#"
   xmlns:rdf="http://www.w3.org/1999/02/22-rdf-syntax-ns#"
   xmlns:svg="http://www.w3.org/2000/svg"
   xmlns="http://www.w3.org/2000/svg"
   xmlns:sodipodi="http://sodipodi.sourceforge.net/DTD/sodipodi-0.dtd"
   xmlns:inkscape="http://www.inkscape.org/namespaces/inkscape"
   version="1.1"
   id="Layer_1"
   x="0px"
   y="0px"
   width="24"
   height="24"
   viewBox="0 0 24 24"
   enable-background="new 0 0 512 512"
   xml:space="preserve"
   inkscape:version="0.91 r13725"
   sodipodi:docname="building.svg"><metadata
     id="metadata5317"><rdf:RDF><cc:Work
         rdf:about=""><dc:format>image/svg+xml</dc:format><dc:type
           rdf:resource="http://purl.org/dc/dcmitype/StillImage" /><dc:title></dc:title></cc:Work></rdf:RDF></metadata><defs
     id="defs5315" /><sodipodi:namedview
     pagecolor="#ffffff"
     bordercolor="#666666"
     borderopacity="1"
     objecttolerance="10"
     gridtolerance="10"
     guidetolerance="10"
     inkscape:pageopacity="0"
     inkscape:pageshadow="2"
     inkscape:window-width="1920"
     inkscape:window-height="1021"
     id="namedview5313"
     showgrid="false"
     fit-margin-top="0"
     fit-margin-left="0"
     fit-margin-right="0"
     fit-margin-bottom="0"
     inkscape:zoom="14.75"
     inkscape:cx="25.214435"
     inkscape:cy="19.008252"
     inkscape:window-x="0"
     inkscape:window-y="0"
     inkscape:window-maximized="1"
     inkscape:current-layer="Layer_1" /><circle
     r="12"
     style="fill:#808080"
     id="path3333"
     cx="12"
     cy="12" /><path
     d="m 17.669492,16.51695 0,-7.5593234 -0.944916,-0.9449147 -0.944915,0 0,-1.8898305 -1.88983,0 0,-0.9449153 -0.944916,0 0,-0.9449153 C 12.944915,3.7107521 12.52183,3.2881356 12,3.2881356 c -0.521829,0 -0.944915,0.4226417 -0.944915,0.9449152 l 0,0.9449153 -0.944915,0 0,0.9449153 -1.8898312,0 0,1.8898305 -0.9449152,0 -0.9449153,0.9449147 0,7.5593234 c -1.0436589,0 -1.8898305,0.845258 -1.8898305,1.88983 l 15.1186442,0 c 0,-1.044572 -0.846172,-1.88983 -1.88983,-1.88983 z m -7.559322,-0.944916 -1.8898312,0 0,-0.944915 1.8898312,0 0,0.944915 z m 0,-1.88983 -1.8898312,0 0,-0.944916 1.8898312,0 0,0.944916 z m 0,-1.889831 -1.8898312,0 0,-0.944915 1.8898312,0 0,0.944915 z m 0,-1.8898304 -1.8898312,0 0,-0.944916 1.8898312,0 0,0.944916 z m 2.834745,5.6694914 -1.88983,0 0,-0.944915 1.88983,0 0,0.944915 z m 0,-1.88983 -1.88983,0 0,-0.944916 1.88983,0 0,0.944916 z m 0,-1.889831 -1.88983,0 0,-0.944915 1.88983,0 0,0.944915 z m 0,-1.8898304 -1.88983,0 0,-0.944916 1.88983,0 0,0.944916 z m 2.834746,5.6694914 -1.889831,0 0,-0.944915 1.889831,0 0,0.944915 z m 0,-1.88983 -1.889831,0 0,-0.944916 1.889831,0 0,0.944916 z m 0,-1.889831 -1.889831,0 0,-0.944915 1.889831,0 0,0.944915 z m 0,-1.8898304 -1.889831,0 0,-0.944916 1.889831,0 0,0.944916 z"
     id="path5311"
     inkscape:connector-curvature="0" /></svg>