<?xml version="1.0" encoding="UTF-8" standalone="no"?>
<svg
   xmlns:dc="http://purl.org/dc/elements/1.1/"
   xmlns:cc="http://creativecommons.org/ns#"
   xmlns:rdf="http://www.w3.org/1999/02/22-rdf-syntax-ns#"
   xmlns:svg="http://www.w3.org/2000/svg"
   xmlns="http://www.w3.org/2000/svg"
   version="1.1"
   id="Layer_1"
   x="0px"
   y="0px"
   width="24"
   height="24"
   viewBox="0 0 24 24"
   enable-background="new 0 0 512 512"
   xml:space="preserve"><metadata
     id="metadata9"><rdf:RDF><cc:Work
         rdf:about=""><dc:format>image/svg+xml</dc:format><dc:type
           rdf:resource="http://purl.org/dc/dcmitype/StillImage" /><dc:title></dc:title></cc:Work></rdf:RDF></metadata><defs
     id="defs7" /><ellipse
     style="fill:#808080;fill-rule:evenodd;stroke:none;stroke-width:0.05600901px;stroke-linecap:butt;stroke-linejoin:miter;stroke-opacity:1"
     id="path3342"
     cx="11.65803"
     cy="12.245904"
     rx="11.997815"
     ry="12.002185"
     transform="matrix(0.9997862,-0.02067748,0.02812888,0.9996043,0,0)" /><g
     style="fill:#000000"
     id="g3464"
     transform="matrix(0.43444185,0,0,0.43444185,4.2161054,4.2161054)"><path
       style="fill:#000000"
       id="path3466"
       d="m 32.959,6.666 c 0,5.111 0,10.223 0,15.334 -8.223,-6.134 -16.444,6.134 -24.667,0 0,-5.111 0,-10.223 0,-15.334 8.223,6.133 16.444,-6.134 24.667,0 z M 5.792,0 C 4.181,0 2.875,1.306 2.875,2.917 c 0,1.162 0.685,2.156 1.667,2.625 l 0,30.292 2.5,0 0,-30.292 C 8.024,5.073 8.709,4.079 8.709,2.917 8.709,1.305 7.404,0 5.792,0 Z" /></g><g
     style="fill:#000000"
     id="g3468"
     transform="matrix(0.43444185,0,0,0.43444185,4.0479628,3.7729394)" /><g
     style="fill:#000000"
     id="g3470"
     transform="matrix(0.43444185,0,0,0.43444185,4.0479628,3.7729394)" /><g
     style="fill:#000000"
     id="g3472"
     transform="matrix(0.43444185,0,0,0.43444185,4.0479628,3.7729394)" /><g
     style="fill:#000000"
     id="g3474"
     transform="matrix(0.43444185,0,0,0.43444185,4.0479628,3.7729394)" /><g
     style="fill:#000000"
     id="g3476"
     transform="matrix(0.43444185,0,0,0.43444185,4.0479628,3.7729394)" /><g
     style="fill:#000000"
     id="g3478"
     transform="matrix(0.43444185,0,0,0.43444185,4.0479628,3.7729394)" /><g
     style="fill:#000000"
     id="g3480"
     transform="matrix(0.43444185,0,0,0.43444185,4.0479628,3.7729394)" /><g
     style="fill:#000000"
     id="g3482"
     transform="matrix(0.43444185,0,0,0.43444185,4.0479628,3.7729394)" /><g
     style="fill:#000000"
     id="g3484"
     transform="matrix(0.43444185,0,0,0.43444185,4.0479628,3.7729394)" /><g
     style="fill:#000000"
     id="g3486"
     transform="matrix(0.43444185,0,0,0.43444185,4.0479628,3.7729394)" /><g
     style="fill:#000000"
     id="g3488"
     transform="matrix(0.43444185,0,0,0.43444185,4.0479628,3.7729394)" /><g
     style="fill:#000000"
     id="g3490"
     transform="matrix(0.43444185,0,0,0.43444185,4.0479628,3.7729394)" /><g
     style="fill:#000000"
     id="g3492"
     transform="matrix(0.43444185,0,0,0.43444185,4.0479628,3.7729394)" /><g
     style="fill:#000000"
     id="g3494"
     transform="matrix(0.43444185,0,0,0.43444185,4.0479628,3.7729394)" /><g
     style="fill:#000000"
     id="g3496"
     transform="matrix(0.43444185,0,0,0.43444185,4.0479628,3.7729394)" /></svg>