<?xml version="1.0" encoding="UTF-8" standalone="no"?>
<svg
   xmlns:dc="http://purl.org/dc/elements/1.1/"
   xmlns:cc="http://creativecommons.org/ns#"
   xmlns:rdf="http://www.w3.org/1999/02/22-rdf-syntax-ns#"
   xmlns:svg="http://www.w3.org/2000/svg"
   xmlns="http://www.w3.org/2000/svg"
   version="1.1"
   id="Layer_1"
   x="0px"
   y="0px"
   width="24"
   height="24"
   viewBox="0 0 24 24"
   enable-background="new 0 0 512 512"
   xml:space="preserve"><metadata
     id="metadata9"><rdf:RDF><cc:Work
         rdf:about=""><dc:format>image/svg+xml</dc:format><dc:type
           rdf:resource="http://purl.org/dc/dcmitype/StillImage" /><dc:title></dc:title></cc:Work></rdf:RDF></metadata><defs
     id="defs7" /><ellipse
     style="fill:#808080;fill-rule:evenodd;stroke:none;stroke-width:0.05600901px;stroke-linecap:butt;stroke-linejoin:miter;stroke-opacity:1"
     id="path3342"
     cx="11.65803"
     cy="12.245904"
     rx="11.997815"
     ry="12.002185"
     transform="matrix(0.9997862,-0.02067748,0.02812888,0.9996043,0,0)" /><path
     id="path3414"
     d="m 10.0625,3.2695312 c -0.03909,0 -0.07561,0.00899 -0.109375,0.023438 l -4.6796875,2.0117187 -0.00195,0.00195 c -0.00318,0.0013 -0.00495,0.00191 -0.00781,0.00391 -0.00732,0.0032 -0.014481,0.00765 -0.021484,0.011719 -0.00509,0.0025 -0.010978,0.00677 -0.015625,0.00977 -0.00255,0.0019 -0.00332,0.00201 -0.00586,0.00391 -0.00446,0.0032 -0.01117,0.00616 -0.015625,0.00977 -0.00255,0.0019 -0.00376,0.00396 -0.00586,0.00586 -0.00446,0.0038 -0.00771,0.00766 -0.011719,0.011719 -0.00191,0.0019 -0.0059,0.00581 -0.00781,0.00781 -0.00382,0.0038 -0.00626,0.00765 -0.00977,0.011719 -0.00191,0.0025 -0.00395,0.00531 -0.00586,0.00781 -0.00318,0.0038 -0.00704,0.00756 -0.00977,0.011719 -0.00191,0.0032 -0.00331,0.00471 -0.00586,0.00781 -0.00255,0.0038 -0.00545,0.00955 -0.00781,0.013672 -0.00191,0.0032 -0.00395,0.00647 -0.00586,0.00977 -0.00255,0.0045 -0.00395,0.00724 -0.00586,0.011719 -0.00255,0.0051 -0.00584,0.010695 -0.00781,0.015625 -0.00255,0.0057 -0.00389,0.011658 -0.00586,0.017578 -0.00127,0.0032 -0.00131,0.00636 -0.00195,0.00977 -0.00127,0.0051 -0.00264,0.010695 -0.00391,0.015625 -6.366e-4,0.0032 -0.00131,0.00632 -0.00195,0.00977 -0.00127,0.0051 -0.00131,0.010155 -0.00195,0.015625 -3.692e-4,0.0032 -0.00132,0.00667 -0.00195,0.00977 -5.219e-4,0.0057 0,0.011528 0,0.017578 -3.81e-5,0.0019 -0.00195,0.00396 -0.00195,0.00586 l 0,1.4492188 c 0,0.15385 0.1254467,0.2773437 0.2792969,0.2773437 0.1538502,0 0.2792968,-0.1234937 0.2792968,-0.2773437 l 0,-1.1699219 4.1230469,0 0,1.5507812 -4.5097656,1.9414063 -0.00195,0 c -0.00318,0.0013 -0.00691,0.00386 -0.00977,0.00586 -0.00732,0.0032 -0.014481,0.0057 -0.021484,0.00977 -0.00509,0.0025 -0.00902,0.00677 -0.013672,0.00977 -0.00255,0.0019 -0.00527,0.00201 -0.00781,0.00391 -0.00446,0.0032 -0.00922,0.00811 -0.013672,0.011719 -0.00255,0.0019 -0.00376,0.00396 -0.00586,0.00586 -0.00446,0.0038 -0.00771,0.00766 -0.011719,0.011719 -0.00191,0.0019 -0.0059,0.00386 -0.00781,0.00586 -0.00382,0.0038 -0.00626,0.00765 -0.00977,0.011719 -0.00191,0.0025 -0.00395,0.00531 -0.00586,0.00781 -0.00318,0.0038 -0.00704,0.00756 -0.00977,0.011719 -0.00191,0.0032 -0.00331,0.00667 -0.00586,0.00977 -0.00255,0.0038 -0.00545,0.0076 -0.00781,0.011719 -0.00191,0.0032 -0.00395,0.00647 -0.00586,0.00977 -0.00255,0.0045 -0.00395,0.00919 -0.00586,0.013672 -0.00255,0.0051 -0.00584,0.00874 -0.00781,0.013672 -0.00255,0.0057 -0.00389,0.011658 -0.00586,0.017578 -0.00127,0.0032 -0.00131,0.00636 -0.00195,0.00977 -0.00127,0.0051 -0.00264,0.010695 -0.00391,0.015625 -6.366e-4,0.0032 -0.00131,0.00632 -0.00195,0.00977 -0.00127,0.0051 -0.00327,0.012108 -0.00391,0.017578 -3.692e-4,0.0032 6.334e-4,0.00471 0,0.00781 -5.22e-4,0.0057 0,0.013481 0,0.019531 -3.82e-5,0.0019 -0.00195,0.00396 -0.00195,0.00586 l 0,1.4472651 c 0,0.153851 0.1254466,0.279297 0.2792969,0.279297 0.1538502,0 0.2792968,-0.125446 0.2792968,-0.279297 l 0,-1.1699214 4.0234376,0 -3.2910157,10.4980474 c -2.993e-4,0.0013 -0.00169,0.0026 -0.00195,0.0039 -0.00382,0.01324 -0.00584,0.02544 -0.00781,0.03906 -1.464e-4,0.0013 -0.00181,0.0026 -0.00195,0.0039 -0.00191,0.01331 -0.00259,0.02759 -0.00195,0.04102 3.82e-5,0.0025 -1.144e-4,0.0049 0,0.0078 5.156e-4,0.01305 0.00331,0.02613 0.00586,0.03906 4.074e-4,0.0025 -6.334e-4,0.0038 0,0.0059 0.00573,0.02655 0.015928,0.05174 0.029297,0.07617 l 0.00391,0.0059 c 0.00662,0.0114 0.013144,0.02257 0.021484,0.0332 0.00127,0.0019 0.00395,0.004 0.00586,0.0059 0.00318,0.0038 0.00607,0.0077 0.00977,0.01172 0.00446,0.0051 0.00871,0.0111 0.013672,0.01563 0.00127,0.0013 0.00458,0.0026 0.00586,0.0039 0.010568,0.0094 0.02168,0.01794 0.033203,0.02539 l 0.00195,0.002 c 0.00127,6.37e-4 0.00264,0.0014 0.00391,0.002 0.00923,0.0057 0.01962,0.01123 0.029297,0.01563 0.00127,6.37e-4 0.002,0.0014 0.00391,0.002 0.010886,0.0045 0.021871,0.0084 0.033203,0.01172 0.00255,6.37e-4 0.00513,0.0014 0.00781,0.002 0.00879,0.0025 0.018368,0.0047 0.027344,0.0059 0.00318,5.23e-4 0.00653,0 0.00977,0 0.011204,0.0013 0.021871,0.0039 0.033203,0.0039 0.060224,0 0.1198523,-0.02001 0.1699219,-0.05859 0.00707,-0.0057 0.0148,-0.01134 0.021484,-0.01758 l 5.1484376,-4.818359 c 1.724369,1.614379 3.62211,3.384327 5.154297,4.818359 0.05303,0.04966 0.120514,0.07617 0.189453,0.07617 0.05118,0 0.102824,-0.01432 0.148437,-0.04297 0.107123,-0.06734 0.155041,-0.199553 0.117188,-0.320312 l -3.291016,-10.4980474 4.023438,0 0,1.1699214 c 0,0.153851 0.125447,0.279297 0.279297,0.279297 0.15385,0 0.277343,-0.125446 0.277343,-0.279297 l 0,-1.4335932 c 2.55e-4,-0.0051 0.002,-0.0086 0.002,-0.013672 0,-0.009 -0.0014,-0.018554 -0.002,-0.027344 l 0,-0.00195 0,-0.00195 c -0.0025,-0.02693 -0.0096,-0.052052 -0.01953,-0.076172 -5.6e-4,-0.0013 -0.0014,-0.00261 -0.002,-0.00391 -0.01,-0.02311 -0.02346,-0.045063 -0.03906,-0.064453 -0.0019,-0.0019 -0.0046,-0.00396 -0.0059,-0.00586 -0.0094,-0.01095 -0.01829,-0.02189 -0.0293,-0.03125 -0.0019,-0.0013 -0.004,-0.00261 -0.0059,-0.00391 -0.0051,-0.0045 -0.01002,-0.0078 -0.01563,-0.011719 -0.0045,-0.0032 -0.0092,-0.00677 -0.01367,-0.00977 -0.0067,-0.0045 -0.01435,-0.00811 -0.02148,-0.011719 -0.0073,-0.0038 -0.01377,-0.00669 -0.02148,-0.00977 -0.0025,-6.369e-4 -0.0057,-0.00261 -0.0078,-0.00391 l -4.5,-1.9355469 0,-1.5507812 4.125,0 0,1.1679687 c 0,0.15385 0.123494,0.2792969 0.277344,0.2792969 0.153849,0 0.279296,-0.1254469 0.279296,-0.2792969 l 0,-1.4335937 c 2.61e-4,-0.0051 0,-0.0086 0,-0.013672 0,-0.009 -0.0014,-0.018564 -0.002,-0.027344 l 0,-0.00195 c -0.0025,-0.02693 -0.0096,-0.052062 -0.01953,-0.076172 -5.54e-4,-0.0013 -0.0014,-0.00261 -0.002,-0.00391 -0.01,-0.02311 -0.02151,-0.045063 -0.03711,-0.064453 -0.0019,-0.0019 -0.0046,-0.00396 -0.0059,-0.00586 -0.0094,-0.01095 -0.01829,-0.02189 -0.0293,-0.03125 -0.0019,-0.0013 -0.004,-0.00261 -0.0059,-0.00391 -0.0051,-0.0045 -0.01002,-0.0078 -0.01563,-0.011719 -0.0045,-0.0032 -0.0092,-0.00677 -0.01367,-0.00977 -0.0067,-0.0045 -0.01435,-0.00811 -0.02148,-0.011719 -0.0073,-0.0038 -0.01377,-0.00669 -0.02148,-0.00977 -0.0025,-6.36e-4 -0.0057,-0.00261 -0.0078,-0.00391 L 14.046875,3.2929688 c -0.03387,-0.014515 -0.0703,-0.023438 -0.109375,-0.023438 z m 0.279297,0.5566407 3.316406,0 0,1.4570312 -3.316406,0 z m -0.5566408,0.1445312 0,1.3125 -3.0507812,0 z m 4.4316408,0 3.048828,1.3125 -3.048828,0 z m -3.875,1.8691407 3.316406,0 0,1.4570312 -3.316406,0 z m 0,2.0136718 3.316406,0 0,1.4570313 -3.316406,0 z m -0.5566408,0.1445313 0,1.3125 -3.0507812,0 z m 4.4316408,0 3.048828,1.3125 -3.048828,0 z m -3.949219,1.8691406 3.464844,0 0.867187,2.7675785 -2.59375,2.427734 C 11.145971,14.250825 10.180678,13.368638 9.4003906,12.634766 Z M 9.2148438,13.224609 c 0.7868342,0.731266 1.6516272,1.555627 2.3730472,2.228516 l -4.3476566,4.068359 z m 5.5703122,0.002 1.97461,6.296876 c -1.441796,-1.333475 -3.014419,-2.840772 -4.34375,-4.078126 z" /><g
     id="g3416"
     transform="matrix(0.05834636,0,0,0.05834636,-174.33204,222.9327)" /><g
     id="g3418"
     transform="matrix(0.05834636,0,0,0.05834636,-174.33204,222.9327)" /><g
     id="g3420"
     transform="matrix(0.05834636,0,0,0.05834636,-174.33204,222.9327)" /><g
     id="g3422"
     transform="matrix(0.05834636,0,0,0.05834636,-174.33204,222.9327)" /><g
     id="g3424"
     transform="matrix(0.05834636,0,0,0.05834636,-174.33204,222.9327)" /><g
     id="g3426"
     transform="matrix(0.05834636,0,0,0.05834636,-174.33204,222.9327)" /><g
     id="g3428"
     transform="matrix(0.05834636,0,0,0.05834636,-174.33204,222.9327)" /><g
     id="g3430"
     transform="matrix(0.05834636,0,0,0.05834636,-174.33204,222.9327)" /><g
     id="g3432"
     transform="matrix(0.05834636,0,0,0.05834636,-174.33204,222.9327)" /><g
     id="g3434"
     transform="matrix(0.05834636,0,0,0.05834636,-174.33204,222.9327)" /><g
     id="g3436"
     transform="matrix(0.05834636,0,0,0.05834636,-174.33204,222.9327)" /><g
     id="g3438"
     transform="matrix(0.05834636,0,0,0.05834636,-174.33204,222.9327)" /><g
     id="g3440"
     transform="matrix(0.05834636,0,0,0.05834636,-174.33204,222.9327)" /><g
     id="g3442"
     transform="matrix(0.05834636,0,0,0.05834636,-174.33204,222.9327)" /><g
     id="g3444"
     transform="matrix(0.05834636,0,0,0.05834636,-174.33204,222.9327)" /></svg>