<?xml version="1.0" encoding="UTF-8" standalone="no"?>
<svg
   xmlns:dc="http://purl.org/dc/elements/1.1/"
   xmlns:cc="http://creativecommons.org/ns#"
   xmlns:rdf="http://www.w3.org/1999/02/22-rdf-syntax-ns#"
   xmlns:svg="http://www.w3.org/2000/svg"
   xmlns="http://www.w3.org/2000/svg"
   xmlns:sodipodi="http://sodipodi.sourceforge.net/DTD/sodipodi-0.dtd"
   xmlns:inkscape="http://www.inkscape.org/namespaces/inkscape"
   xml:space="preserve"
   enable-background="new 0 0 512 512"
   viewBox="0 0 24 24"
   height="24"
   width="24"
   y="0px"
   x="0px"
   id="Layer_1"
   version="1.1"
   inkscape:version="0.91 r13725"
   sodipodi:docname="water_tower2.svg"><sodipodi:namedview
     pagecolor="#ffffff"
     bordercolor="#666666"
     borderopacity="1"
     objecttolerance="10"
     gridtolerance="10"
     guidetolerance="10"
     inkscape:pageopacity="0"
     inkscape:pageshadow="2"
     inkscape:window-width="1920"
     inkscape:window-height="1021"
     id="namedview4694"
     showgrid="false"
     inkscape:zoom="9.8333333"
     inkscape:cx="-2.6949153"
     inkscape:cy="12"
     inkscape:window-x="0"
     inkscape:window-y="0"
     inkscape:window-maximized="1"
     inkscape:current-layer="Layer_1" /><metadata
     id="metadata9"><rdf:RDF><cc:Work
         rdf:about=""><dc:format>image/svg+xml</dc:format><dc:type
           rdf:resource="http://purl.org/dc/dcmitype/StillImage" /><dc:title /></cc:Work></rdf:RDF></metadata><defs
     id="defs7" /><ellipse
     transform="matrix(0.9997862,-0.02067748,0.02812888,0.9996043,0,0)"
     ry="12.002185"
     rx="11.997815"
     cy="12.245904"
     cx="11.65803"
     id="path3342"
     style="fill:#808080;fill-rule:evenodd;stroke:none;stroke-width:0.05600901px;stroke-linecap:butt;stroke-linejoin:miter;stroke-opacity:1" /><path
     d="m 6.2737595,3.9832632 0,4.0083686 c 0,1.657082 0.905378,2.8405282 2.183129,3.5789002 l -1.037881,8.446205 1.717873,0 0.214734,-1.682079 2.6483875,-1.753665 2.648386,1.78945 0.214734,1.646294 1.71787,0 -1.03788,-8.410412 C 16.830897,10.869953 17.72624,9.6669158 17.72624,7.9916318 l 0,-4.0083687 -1.717872,0 0,1.7178722 -0.572623,0 c -1.290831,0.572624 -2.290496,0.572624 -3.435743,0 -1.145249,-0.5726241 -2.2468235,-0.5726241 -3.4357465,0 l -0.572624,0 0,-1.7178722 z m 3.8294245,8.2314708 c 1.224527,0.305965 2.56843,0.336207 3.793635,0.03581 l 0.214734,1.78945 -2.111551,1.395753 -2.1115525,-1.395768 z m -0.3578905,2.86312 1.3957715,0.930515 -1.6462945,1.109463 z m 4.5094155,0 0.250523,2.039978 -1.646294,-1.109463 z"
     id="water-tower"
     style="fill:#000000;fill-opacity:1;stroke:none"
     inkscape:connector-curvature="0" /></svg>